<?xml version="1.0" encoding="utf-8"?>
<!DOCTYPE svg PUBLIC "-//W3C//DTD SVG 1.0//EN" "http://www.w3.org/TR/2001/REC-SVG-20010904/DTD/svg10.dtd">
<svg version="1.0" xmlns="http://www.w3.org/2000/svg" width="368" height="393.4" viewBox="328.5 315.7 368 393.4" preserveAspectRatio="xMidYMid meet">
 <g fill="#5c7a45">
  <path d="M347.90 703.95 c-5.95 -0.65 -10.55 -4 -13.20 -9.60 l-1.20 -2.60 0 -115.30 c0 -75.85 0.15 -116.25 0.50 -118 0.80 -4.10 2.85 -7.90 6.20 -11.25 1.70 -1.65 9.90 -8.15 18.30 -14.45 8.40 -6.25 17.05 -12.80 19.25 -14.50 2.20 -1.70 5.35 -3.90 7 -4.80 2.75 -1.55 3.35 -1.70 7.25 -1.70 3.65 0 4.60 0.20 6.75 1.35 4.85 2.65 7.35 5.80 8.20 10.40 0.35 1.80 0.45 11.15 0.25 27 -0.25 25.75 -0.05 28.75 1.95 30.90 2.35 2.55 2.80 2.60 18.15 2.60 13.80 0 14.40 0.05 16.25 1.10 3.70 2.05 3.65 2 3.95 17.50 0.30 15.20 0.25 15.05 3.70 17.60 1.30 1 2.20 1.05 16.70 1.30 17.15 0.30 17.50 0.35 19.75 4 1.05 1.65 1.10 2.45 1.35 15.90 l0.25 14.20 1.80 1.65 c2.40 2.15 3.90 2.35 19.70 2.15 14.05 -0.15 14.40 -0.10 17.10 3.45 l1.40 1.80 0.10 13.65 c0.10 15.05 0.20 15.60 3.25 17.80 1.65 1.15 1.70 1.15 14.95 0.95 16 -0.20 18.05 0.10 20.65 3 1 1.05 1.80 2.10 1.85 2.35 0 0.20 0.10 6.35 0.15 13.70 0.20 14.65 0.45 15.90 3.45 18.10 1.35 1 2.25 1.05 17.55 1.30 22.15 0.35 20.50 -1.10 20.70 18.40 0.10 15.05 0.20 15.55 3.20 17.70 l1.65 1.15 31.50 0.25 31.50 0.25 2.85 1.40 c3.40 1.65 7 5.50 8 8.50 0.45 1.35 0.65 3.60 0.55 6.25 -0.10 3.45 -0.40 4.65 -1.50 6.70 -1.50 2.75 -4.40 5.40 -7.45 6.75 -1.85 0.80 -11.60 0.85 -165.45 1 -89.95 0.10 -163.95 0.20 -164.50 0.30 -0.55 0.05 -2.50 -0.05 -4.35 -0.20z"/>
 </g>
 <g fill="#3a4d2d">
  <path d="M673.45 656.55 c-3.95 -0.80 -7.35 -3.65 -9.75 -8.05 -0.90 -1.70 -0.95 -4.55 -1.20 -90.50 l-0.25 -88.75 -1.10 -2 c-1.75 -3.30 0.25 -1.70 -40.40 -32.75 -15.95 -12.20 -33.50 -25.70 -39 -30 -5.50 -4.30 -15.30 -11.85 -21.75 -16.75 -19.15 -14.65 -32.10 -24.70 -38.50 -29.95 -5.10 -4.15 -6.90 -5 -10.10 -4.70 -2.90 0.30 -5.20 1.75 -15.90 10.15 -4.25 3.30 -11.90 9.15 -17 13 -5.10 3.80 -13.20 10 -18 13.75 -21.75 16.90 -26.35 20.40 -28 21.25 -1.05 0.55 -3.25 1 -5.55 1.15 -3.30 0.20 -4.20 0.05 -6.50 -1 -3.15 -1.45 -5.55 -3.65 -7.10 -6.60 -1.50 -2.90 -1.55 -8.70 0 -11.55 1.85 -3.45 3.30 -4.65 31.40 -26.25 6.35 -4.85 21.55 -16.60 33.85 -26.15 12.30 -9.50 23.70 -17.90 25.25 -18.70 2.65 -1.25 3.40 -1.40 8.15 -1.40 4.65 0 5.60 0.15 8.10 1.35 3.25 1.50 3.45 1.65 14.65 10.45 4.40 3.45 14.55 11.20 22.50 17.30 8 6.05 21.05 16.05 29.10 22.20 8 6.15 18.10 13.95 22.50 17.30 4.35 3.30 11.60 8.90 16.15 12.45 15 11.60 44.15 33.90 51.05 39.05 3.75 2.80 7.80 6.20 8.95 7.50 2.80 3.20 4.80 7.30 5.50 11.25 0.40 2.35 0.50 28.35 0.40 94.70 l-0.20 91.45 -1.35 2.60 c-3.30 6.40 -9.45 9.55 -15.90 8.20z"/>
 </g>
 <g fill="#1c1917">
  <path d="M347.15 703.40 c0.15 -0.50 3.10 -0.65 12.40 -0.65 6.70 -0.05 37.20 -0.10 67.70 -0.20 30.55 -0.05 81.50 -0.10 113.25 -0.10 83.55 0 137.85 -0.40 140.25 -1 1.35 -0.35 2.85 -1.40 4.60 -3.20 3.50 -3.60 4.50 -6.85 3.75 -12.15 -0.70 -4.90 -2.85 -8.25 -6.65 -10.35 l-2.70 -1.50 -31.25 -0.25 c-28.90 -0.25 -31.40 -0.30 -33 -1.15 -2.15 -1.10 -4.50 -3.85 -3.30 -3.85 0.45 0 0.80 0.20 0.80 0.45 0 0.30 0.85 1.15 1.85 1.90 l1.80 1.40 31.55 0.25 31.55 0.25 2.50 1.20 c2.95 1.50 6 4.15 7.15 6.25 4.70 8.75 1.10 18.90 -7.90 22.35 -2.45 0.95 -5.90 0.95 -168.55 0.95 -132.60 0 -166 -0.15 -165.80 -0.60z"/>
  <path d="M343.85 703.15 c-0.80 -0.75 -0.30 -1.50 0.90 -1.25 1.45 0.25 1.70 1.60 0.35 1.60 -0.50 0 -1.10 -0.15 -1.25 -0.35z"/>
  <path d="M338.90 700 c-3.30 -2.90 -4.85 -6.10 -5.10 -10.55 -0.25 -3.60 -0.25 -3.65 0.20 -0.85 0.25 1.55 0.80 3.65 1.25 4.70 1.15 2.75 3.80 6.05 5.40 6.75 0.75 0.30 1.35 0.90 1.35 1.25 0 1.15 -0.75 0.80 -3.10 -1.30z"/>
  <path d="M333.70 665.75 c0 -4.95 0.10 -6.90 0.15 -4.35 0.10 2.55 0.10 6.60 0 9 -0.05 2.40 -0.15 0.30 -0.15 -4.65z"/>
  <path d="M610.50 666 c0 -1 0.25 -1.50 0.75 -1.50 0.50 0 0.75 0.50 0.75 1.50 0 1 -0.25 1.50 -0.75 1.50 -0.50 0 -0.75 -0.50 -0.75 -1.50z"/>
  <path d="M610.30 656.40 c-0.60 -8.50 -0.35 -10.90 1 -10.90 0.55 0 0.70 1.45 0.70 7.75 0 6.15 -0.15 7.75 -0.70 7.75 -0.45 0 -0.75 -1.25 -1 -4.60z"/>
  <path d="M333.65 644.75 l0 -12 0.40 9.55 c0.20 5.30 0.20 10.70 0 12 -0.30 1.60 -0.45 -1.75 -0.40 -9.55z"/>
  <path d="M610.05 642.85 c0 -1.30 -0.40 -3.10 -0.85 -3.90 -1.40 -2.75 -2.65 -2.95 -18.90 -2.95 -9.10 0 -15.25 -0.20 -16.10 -0.55 -1.95 -0.70 -4.70 -3.65 -5.25 -5.60 -0.25 -0.85 -0.45 -7.40 -0.45 -14.50 0 -14.25 -0.05 -14.35 -3.25 -16.35 -1.55 -0.95 -2.45 -1 -16.55 -1 -16.75 0 -16.60 0.05 -19.50 -3.80 l-1.45 -1.85 -0.25 -14.05 c-0.25 -15.25 -0.35 -15.60 -3.15 -17.30 -1.50 -0.95 -2.65 -1 -16.25 -1 -15.25 0 -16.35 -0.15 -18.05 -2.20 -1 -1.20 0.20 -1 2 0.35 1.50 1.10 1.80 1.10 16.35 1.10 14.40 0 14.90 0.05 16.60 1.10 0.95 0.60 2.30 1.80 2.95 2.70 1.15 1.60 1.20 1.75 1.30 15.15 0.10 8 0.35 14.10 0.70 14.90 0.25 0.75 1.45 2.05 2.65 2.90 l2.10 1.55 14.85 -0.10 c16.45 -0.05 16.70 0 19.15 3.20 1.35 1.75 1.65 2.85 0.80 2.85 -0.25 0 -0.50 0.35 -0.50 0.75 0 0.40 0.35 0.75 0.75 0.75 0.65 0 0.75 1.15 0.75 7.50 0 6.35 -0.10 7.50 -0.75 7.50 -0.55 0 -0.75 0.60 -0.75 2.50 0 1.90 0.20 2.50 0.75 2.50 0.60 0 0.75 0.65 0.75 2.85 0 2.25 0.25 3.15 1.30 4.50 2.30 3 2.45 3.05 19.40 3.10 16.75 0.10 17.25 0.20 19.20 2.90 1.40 1.95 1.90 4.65 0.90 4.65 -0.40 0 -0.85 0.50 -0.95 1.15 -0.10 0.60 -0.25 0 -0.30 -1.30z"/>
  <path d="M333.70 607 c0 -3.45 0.05 -4.85 0.15 -3.10 0.10 1.70 0.10 4.50 0 6.25 -0.10 1.70 -0.15 0.30 -0.15 -3.15z"/>
  <path d="M333.70 573.50 c0 -4 0.10 -5.60 0.15 -3.60 0.10 1.95 0.10 5.25 0 7.25 -0.05 1.95 -0.15 0.35 -0.15 -3.65z"/>
  <path d="M488.60 556.05 c-1.25 -0.75 -1.60 -4.25 -1.60 -16.20 0 -13.25 -0.20 -14.35 -3.20 -16.50 -1.50 -1.05 -1.90 -1.10 -16.30 -1.15 -13.20 -0.05 -14.95 -0.15 -16.50 -0.95 -1 -0.50 -1.45 -1 -1.10 -1.15 0.35 -0.10 1.20 0.15 1.85 0.60 1.05 0.70 3.30 0.80 16.05 0.80 14.35 0 14.85 0.05 16.80 1.10 1.05 0.60 2.45 1.90 3.05 2.90 1.05 1.70 1.10 2.25 1.15 15 0 8.80 0.20 13.70 0.60 14.65 0.60 1.40 0.35 1.65 -0.80 0.90z"/>
  <path d="M333.70 542 c0 -4 0.10 -5.60 0.15 -3.60 0.10 1.95 0.10 5.25 0 7.25 -0.05 1.95 -0.15 0.35 -0.15 -3.65z"/>
  <path d="M333.65 522.75 c0 -1.10 0.10 -1.50 0.20 -0.85 0.10 0.60 0.10 1.50 0 2 -0.15 0.45 -0.25 -0.05 -0.20 -1.15z"/>
  <path d="M333.70 511.50 c0 -4.80 0.10 -6.80 0.15 -4.35 0.10 2.40 0.10 6.30 0 8.75 -0.05 2.40 -0.15 0.40 -0.15 -4.40z"/>
  <path d="M447.30 517.95 c-1.15 -1.35 -1.30 -1.95 -1.30 -5.50 0 -3 0.15 -3.95 0.70 -3.95 0.50 0 0.75 1.10 0.90 4.25 0.20 3.60 0.40 4.45 1.40 5.50 0.90 1 1 1.25 0.40 1.25 -0.45 0 -1.40 -0.70 -2.10 -1.55z"/>
  <path d="M445.50 489.90 c0 -1.45 -0.80 -2.70 -2.60 -4 -1.65 -1.15 -1.80 -1.15 -16.15 -1.15 -13.35 0 -14.65 -0.10 -16.25 -0.95 -2.20 -1.20 -1.15 -1.65 1.10 -0.50 1.45 0.75 3.25 0.85 15.75 0.75 15.15 -0.10 15.60 -0.05 18 2.55 0.60 0.60 1.30 1.75 1.60 2.45 0.40 1.15 0.35 1.40 -0.50 1.60 -0.70 0.20 -0.95 0 -0.95 -0.75z"/>
  <path d="M333.60 473.15 c-0.10 -12.95 0.40 -17.05 2.75 -21.05 1.45 -2.50 5.50 -6.70 8.90 -9.25 8.90 -6.70 24.65 -18.60 30.20 -22.85 8.65 -6.60 11.10 -7.90 15.45 -8.30 2.75 -0.25 3.85 -0.10 6.35 0.85 3 1.10 8.30 5.40 6.70 5.45 -0.40 0 -1.50 -0.80 -2.45 -1.75 -2.15 -2.25 -6.35 -3.80 -10.25 -3.85 -2.55 -0.05 -3.55 0.20 -6.20 1.60 -1.75 0.95 -3.50 2.25 -3.95 2.90 -0.45 0.70 -2.40 2.25 -4.35 3.55 -5.90 3.85 -13.75 9.55 -18.75 13.50 -2.60 2.10 -6.55 5.10 -8.80 6.70 -6.80 4.85 -10.95 9 -12.75 12.60 -1.55 3.15 -1.60 3.50 -2 12.65 -0.25 5.15 -0.50 11.50 -0.60 14.10 -0.10 2.60 -0.20 -0.45 -0.25 -6.85z"/>
  <path d="M406.75 480.10 l-1.25 -1.95 0.10 -28.30 c0.10 -15.60 -0.05 -28.35 -0.30 -28.35 -0.20 0 -0.30 -0.35 -0.10 -0.75 0.15 -0.40 0.05 -0.75 -0.25 -0.75 -0.30 0 -0.35 -0.20 -0.20 -0.50 0.15 -0.25 0.05 -0.50 -0.30 -0.50 -0.35 0 -0.45 -0.15 -0.30 -0.30 0.65 -0.70 1.80 0.95 2.40 3.45 0.50 1.95 0.60 8.80 0.55 28.25 -0.15 26.15 0 28.75 1.75 30.75 0.75 0.75 0.75 0.85 0 0.85 -0.45 0 -1.40 -0.85 -2.10 -1.90z"/>
 </g>
</svg>