<?xml version="1.0" encoding="utf-8"?>
<svg xmlns="http://www.w3.org/2000/svg" width="368" height="393.4" viewBox="328.5 315.7 368 393.4">
 <g fill="#3a4d2d">
  <path d="M347.90 703.95 c-5.95 -0.65 -10.55 -4 -13.20 -9.60 l-1.20 -2.60 0 -115.30 c0 -75.85 0.15 -116.25 0.50 -118 0.80 -4.10 2.85 -7.90 6.20 -11.25 1.70 -1.65 9.90 -8.15 18.30 -14.45 8.40 -6.25 17.05 -12.80 19.25 -14.50 2.20 -1.70 5.35 -3.90 7 -4.80 2.75 -1.55 3.35 -1.70 7.25 -1.70 3.65 0 4.60 0.20 6.75 1.35 4.85 2.65 7.35 5.80 8.20 10.40 0.35 1.80 0.45 11.15 0.25 27 -0.25 25.75 -0.05 28.75 1.95 30.90 2.35 2.55 2.80 2.60 18.15 2.60 13.80 0 14.40 0.05 16.25 1.10 3.70 2.05 3.65 2 3.95 17.50 0.30 15.20 0.25 15.05 3.70 17.60 1.30 1 2.20 1.05 16.70 1.30 17.15 0.30 17.50 0.35 19.75 4 1.05 1.65 1.10 2.45 1.35 15.90 l0.25 14.20 1.80 1.65 c2.40 2.15 3.90 2.35 19.70 2.15 14.05 -0.15 14.40 -0.10 17.10 3.45 l1.40 1.80 0.10 13.65 c0.10 15.05 0.20 15.60 3.25 17.80 1.65 1.15 1.70 1.15 14.95 0.95 16 -0.20 18.05 0.10 20.65 3 1 1.05 1.80 2.10 1.85 2.35 0 0.20 0.10 6.35 0.15 13.70 0.20 14.65 0.45 15.90 3.45 18.10 1.35 1 2.25 1.05 17.55 1.30 22.15 0.35 20.50 -1.10 20.70 18.40 0.10 15.05 0.20 15.55 3.20 17.70 l1.65 1.15 31.50 0.25 31.50 0.25 2.85 1.40 c3.40 1.65 7 5.50 8 8.50 0.45 1.35 0.65 3.60 0.55 6.25 -0.10 3.45 -0.40 4.65 -1.50 6.70 -1.50 2.75 -4.40 5.40 -7.45 6.75 -1.85 0.80 -11.60 0.85 -165.45 1 -89.95 0.10 -163.95 0.20 -164.50 0.30 -0.55 0.05 -2.50 -0.05 -4.35 -0.20z"/>
 </g>
 <g fill="#5c7a45">
  <path d="M673.45 656.55 c-3.95 -0.80 -7.35 -3.65 -9.75 -8.05 -0.90 -1.70 -0.95 -4.55 -1.20 -90.50 l-0.25 -88.75 -1.10 -2 c-1.75 -3.30 0.25 -1.70 -40.40 -32.75 -15.95 -12.20 -33.50 -25.70 -39 -30 -5.50 -4.30 -15.30 -11.85 -21.75 -16.75 -19.15 -14.65 -32.10 -24.70 -38.50 -29.95 -5.10 -4.15 -6.90 -5 -10.10 -4.70 -2.90 0.30 -5.20 1.75 -15.90 10.15 -4.25 3.30 -11.90 9.15 -17 13 -5.10 3.80 -13.20 10 -18 13.75 -21.75 16.90 -26.35 20.40 -28 21.25 -1.05 0.55 -3.25 1 -5.55 1.15 -3.30 0.20 -4.20 0.05 -6.50 -1 -3.15 -1.45 -5.55 -3.65 -7.10 -6.60 -1.50 -2.90 -1.55 -8.70 0 -11.55 1.85 -3.45 3.30 -4.65 31.40 -26.25 6.35 -4.85 21.55 -16.60 33.85 -26.15 12.30 -9.50 23.70 -17.90 25.25 -18.70 2.65 -1.25 3.40 -1.40 8.15 -1.40 4.65 0 5.60 0.15 8.10 1.35 3.25 1.50 3.45 1.65 14.65 10.45 4.40 3.45 14.55 11.20 22.50 17.30 8 6.05 21.05 16.05 29.10 22.20 8 6.15 18.10 13.95 22.50 17.30 4.35 3.30 11.60 8.90 16.15 12.45 15 11.60 44.15 33.90 51.05 39.05 3.75 2.80 7.80 6.20 8.95 7.50 2.80 3.20 4.80 7.30 5.50 11.25 0.40 2.35 0.50 28.35 0.40 94.70 l-0.20 91.45 -1.35 2.60 c-3.30 6.40 -9.45 9.55 -15.90 8.20z"/>
 </g>
</svg>
